<svg width="40" height="48" viewBox="0 0 40 48" fill="none" xmlns="http://www.w3.org/2000/svg">
<rect x="1" y="1" width="38" height="46" rx="15" stroke="#067CFF" stroke-width="2"/>
<path d="M27.0269 28.9454C26.8769 28.7994 26.6988 28.6835 26.5027 28.6045C26.3067 28.5254 26.0966 28.4847 25.8843 28.4847C25.6721 28.4847 25.462 28.5254 25.2659 28.6045C25.0699 28.6835 24.8918 28.7994 24.7417 28.9454L22.1152 31.5012V17.5718C22.1152 17.1549 21.945 16.7551 21.6421 16.4604C21.3391 16.1656 20.9283 16 20.4998 16C20.0714 16 19.6606 16.1656 19.3576 16.4604C19.0547 16.7551 18.8845 17.1549 18.8845 17.5718V31.5012L16.2579 28.9454C15.9551 28.6506 15.5442 28.4849 15.1157 28.4848C14.6873 28.4847 14.2763 28.6502 13.9733 28.9449C13.6703 29.2396 13.5 29.6394 13.4999 30.0563C13.4998 30.4732 13.6699 30.8731 13.9728 31.168L17.8345 34.9257C18.1845 35.2663 18.6001 35.5365 19.0574 35.7208C19.5147 35.9051 20.0048 36 20.4998 36C20.9949 36 21.485 35.9051 21.9423 35.7208C22.3996 35.5365 22.8152 35.2663 23.1652 34.9257L27.0269 31.168C27.3298 30.8732 27.4999 30.4735 27.4999 30.0567C27.4999 29.6399 27.3298 29.2402 27.0269 28.9454Z" fill="#067CFF"/>
</svg>
