<svg width="14" height="13" viewBox="0 0 14 13" fill="none" xmlns="http://www.w3.org/2000/svg">
<path d="M13.0178 4.02513L9.57544 0.439127C9.30532 0.157865 8.939 -9.37294e-05 8.55708 4.17261e-08C8.17516 9.38129e-05 7.80892 0.158232 7.53892 0.439627C7.26892 0.721021 7.11729 1.10262 7.11738 1.50048C7.11747 1.89834 7.26928 2.27986 7.5394 2.56113L9.8807 5.00013H1.43992C1.05803 5.00013 0.691778 5.15816 0.421742 5.43947C0.151705 5.72077 0 6.1023 0 6.50013C0 6.89795 0.151705 7.27948 0.421742 7.56079C0.691778 7.84209 1.05803 8.00013 1.43992 8.00013H9.8807L7.5394 10.4391C7.26928 10.7204 7.11747 11.1019 7.11738 11.4998C7.11729 11.8976 7.26892 12.2792 7.53892 12.5606C7.80892 12.842 8.17516 13.0002 8.55708 13.0003C8.939 13.0003 9.30532 12.8424 9.57544 12.5611L13.0178 8.97513C13.6468 8.31809 14 7.42804 14 6.50013C14 5.57221 13.6468 4.68216 13.0178 4.02513Z" fill="#067CFF"/>
</svg>
