<svg width="112" height="102" viewBox="0 0 112 102" fill="none" xmlns="http://www.w3.org/2000/svg">
<path d="M107.334 4.17001H60.6752C59.4377 4.17001 58.2509 4.66082 57.3759 5.53447C56.5009 6.40812 56.0093 7.59305 56.0093 8.82858V24.0621L44.8111 4.68245C43.994 3.2596 42.8151 2.07734 41.3936 1.25516C39.9722 0.432972 38.3585 0 36.7158 0C35.073 0 33.4594 0.432972 32.038 1.25516C30.6165 2.07734 29.4376 3.2596 28.6205 4.68245L0.625111 53.085C0.215594 53.7932 0 54.5965 0 55.4143C0 56.232 0.215594 57.0354 0.625111 57.7436C1.0362 58.4545 1.62813 59.0443 2.34098 59.4534C3.05382 59.8624 3.86226 60.0761 4.68444 60.0729H24.7011C23.7952 63.0956 23.3393 66.2349 23.348 69.39C23.348 78.0387 26.7891 86.3332 32.9143 92.4487C39.0394 98.5643 47.347 102 56.0093 102C64.6716 102 72.9791 98.5643 79.1043 92.4487C85.2294 86.3332 88.6705 78.0387 88.6705 69.39C88.6793 66.2349 88.2233 63.0956 87.3174 60.0729H107.334C108.572 60.0729 109.758 59.582 110.633 58.7084C111.508 57.8347 112 56.6498 112 55.4143V8.82858C112 7.59305 111.508 6.40812 110.633 5.53447C109.758 4.66082 108.572 4.17001 107.334 4.17001ZM12.7564 50.7557L36.6925 9.34102L52.6965 36.78C48.0303 37.2985 43.5308 38.8153 39.5049 41.2271C35.4789 43.6389 32.0211 46.8889 29.367 50.7557H12.7564ZM56.0093 92.6829C51.3951 92.6829 46.8846 91.3168 43.0481 88.7573C39.2116 86.1979 36.2214 82.56 34.4557 78.3038C32.6899 74.0476 32.2279 69.3642 33.1281 64.8458C34.0282 60.3274 36.2502 56.177 39.5128 52.9195C42.7755 49.6619 46.9324 47.4435 51.4579 46.5447C55.9834 45.6459 60.6742 46.1072 64.9371 47.8702C69.2 49.6332 72.8435 52.6187 75.407 56.4492C77.9705 60.2797 79.3387 64.7831 79.3387 69.39C79.3387 75.5676 76.8808 81.4923 72.5057 85.8605C68.1306 90.2288 62.1966 92.6829 56.0093 92.6829ZM102.668 50.7557H82.7915C78.5543 44.7156 72.4094 40.2701 65.3411 38.131V13.4871H102.668V50.7557Z" fill="#067CFF"/>
</svg>
