<svg width="96" height="96" viewBox="0 0 96 96" fill="none" xmlns="http://www.w3.org/2000/svg">
<path d="M89.9994 15.9201H77.6554C76.8644 15.9202 76.0912 16.1552 75.4335 16.5951C74.7759 17.0351 74.2633 17.6604 73.9606 18.3919C73.658 19.1234 73.5788 19.9284 73.733 20.705C73.8873 21.4816 74.2681 22.1949 74.8274 22.7549L79.1714 27.1032L64.8274 41.4576C64.0652 42.1867 63.0516 42.5936 61.9974 42.5936C60.9431 42.5936 59.9295 42.1867 59.1674 41.4576L58.4874 40.7729C56.2018 38.587 53.1624 37.3672 50.0014 37.3672C46.8403 37.3672 43.8009 38.587 41.5154 40.7729L21.1154 61.1933C20.3637 61.9478 19.9423 62.9703 19.9438 64.0358C19.9453 65.1014 20.3696 66.1227 21.1234 66.875C21.8771 67.6274 22.8986 68.0492 23.963 68.0477C25.0275 68.0462 26.0477 67.6215 26.7994 66.867L47.1994 46.4466C47.961 45.7166 48.9748 45.3091 50.0294 45.3091C51.0839 45.3091 52.0977 45.7166 52.8594 46.4466L53.5394 47.1313C55.8258 49.3154 58.8649 50.5339 62.0254 50.5339C65.1858 50.5339 68.2249 49.3154 70.5114 47.1313L84.8554 32.7729L89.1994 37.1213C89.7606 37.672 90.4716 38.045 91.2434 38.1937C92.0152 38.3424 92.8137 38.2602 93.5391 37.9574C94.2645 37.6545 94.8847 37.1445 95.3223 36.4909C95.7598 35.8373 95.9953 35.0692 95.9994 34.2824V21.9261C95.9994 20.3332 95.3672 18.8055 94.242 17.6792C93.1168 16.5528 91.5907 15.9201 89.9994 15.9201Z" fill="#067CFF"/>
<path d="M92 87.992H20C16.8174 87.992 13.7652 86.7264 11.5147 84.4738C9.26428 82.2211 8 79.1658 8 75.98V4.004C8 2.94208 7.57857 1.92364 6.82843 1.17275C6.07828 0.421849 5.06087 0 4 0C2.93913 0 1.92172 0.421849 1.17157 1.17275C0.421427 1.92364 0 2.94208 0 4.004V75.98C0.00635143 81.2877 2.11553 86.3761 5.86488 90.1292C9.61423 93.8824 14.6976 95.9936 20 96H92C93.0609 96 94.0783 95.5782 94.8284 94.8273C95.5786 94.0764 96 93.0579 96 91.996C96 90.9341 95.5786 89.9156 94.8284 89.1647C94.0783 88.4138 93.0609 87.992 92 87.992Z" fill="#067CFF"/>
</svg>
