<svg width="25" height="22" viewBox="0 0 25 22" fill="none" xmlns="http://www.w3.org/2000/svg">
<path d="M17.7397 0C16.7148 0.00997189 15.7064 0.261228 14.7954 0.733638C13.8844 1.20605 13.096 1.88648 12.4936 2.72042C11.8911 1.88648 11.1027 1.20605 10.1917 0.733638C9.28071 0.261228 8.27234 0.00997189 7.2474 0C5.39053 0.0745743 3.63856 0.885546 2.37458 2.25559C1.1106 3.62563 0.437459 5.44327 0.502337 7.31106C0.502337 11.8856 5.17292 16.7828 9.09604 20.0861C10.0487 20.8916 11.2534 21.3333 12.4981 21.3333C13.7427 21.3333 14.9474 20.8916 15.9001 20.0861C19.8192 16.7828 24.4938 11.8856 24.4938 7.31106C24.5586 5.44176 23.8842 3.6228 22.6183 2.2525C21.3524 0.882202 19.5982 0.0722447 17.7397 0ZM13.9695 17.7757C13.5562 18.1256 13.0333 18.3175 12.4931 18.3175C11.9528 18.3175 11.4299 18.1256 11.0166 17.7757C6.24014 13.7478 3.50014 9.934 3.50014 7.31106C3.43643 6.24301 3.79421 5.19279 4.49579 4.38843C5.19738 3.58407 6.18614 3.09049 7.2474 3.01487C8.30865 3.09049 9.29741 3.58407 9.999 4.38843C10.7006 5.19279 11.0584 6.24301 10.9947 7.31106C10.9947 7.71086 11.1526 8.09428 11.4337 8.37698C11.7148 8.65968 12.096 8.8185 12.4936 8.8185C12.8911 8.8185 13.2723 8.65968 13.5534 8.37698C13.8345 8.09428 13.9925 7.71086 13.9925 7.31106C13.9287 6.24301 14.2865 5.19279 14.9881 4.38843C15.6897 3.58407 16.6785 3.09049 17.7397 3.01487C18.801 3.09049 19.7897 3.58407 20.4913 4.38843C21.1929 5.19279 21.5507 6.24301 21.487 7.31106C21.487 9.934 18.747 13.7478 13.9695 17.7757Z" fill="#067CFF"/>
</svg>
