<svg width="96" height="97" viewBox="0 0 96 97" fill="none" xmlns="http://www.w3.org/2000/svg">
<path d="M4 19.5001H14.944C15.8025 22.659 17.6767 25.4476 20.2773 27.4358C22.8779 29.4239 26.0605 30.5011 29.334 30.5011C32.6075 30.5011 35.7901 29.4239 38.3907 27.4358C40.9913 25.4476 42.8655 22.659 43.724 19.5001H92C93.0609 19.5001 94.0783 19.0786 94.8284 18.3285C95.5786 17.5783 96 16.5609 96 15.5001C96 14.4392 95.5786 13.4218 94.8284 12.6716C94.0783 11.9215 93.0609 11.5001 92 11.5001H43.724C42.8655 8.34113 40.9913 5.55248 38.3907 3.56434C35.7901 1.57619 32.6075 0.499023 29.334 0.499023C26.0605 0.499023 22.8779 1.57619 20.2773 3.56434C17.6767 5.55248 15.8025 8.34113 14.944 11.5001H4C2.93913 11.5001 1.92172 11.9215 1.17157 12.6716C0.421427 13.4218 0 14.4392 0 15.5001C0 16.5609 0.421427 17.5783 1.17157 18.3285C1.92172 19.0786 2.93913 19.5001 4 19.5001ZM29.332 8.50006C30.7165 8.50006 32.0698 8.9106 33.221 9.67977C34.3721 10.4489 35.2693 11.5422 35.7992 12.8213C36.329 14.1004 36.4676 15.5078 36.1975 16.8657C35.9274 18.2236 35.2607 19.4708 34.2817 20.4498C33.3028 21.4288 32.0555 22.0955 30.6976 22.3656C29.3398 22.6357 27.9323 22.497 26.6532 21.9672C25.3741 21.4374 24.2809 20.5402 23.5117 19.3891C22.7425 18.2379 22.332 16.8845 22.332 15.5001C22.3341 13.6442 23.0723 11.8649 24.3846 10.5527C25.6969 9.24035 27.4761 8.50218 29.332 8.50006Z" fill="#067CFF"/>
<path d="M92 44.4952H81.056C80.1989 41.3356 78.3255 38.5459 75.7251 36.557C73.1247 34.568 69.9419 33.4903 66.668 33.4903C63.3941 33.4903 60.2113 34.568 57.6109 36.557C55.0105 38.5459 53.1371 41.3356 52.28 44.4952H4C2.93913 44.4952 1.92172 44.9167 1.17157 45.6668C0.421427 46.417 0 47.4344 0 48.4952C0 49.5561 0.421427 50.5735 1.17157 51.3237C1.92172 52.0738 2.93913 52.4952 4 52.4952H52.28C53.1371 55.6549 55.0105 58.4445 57.6109 60.4335C60.2113 62.4225 63.3941 63.5001 66.668 63.5001C69.9419 63.5001 73.1247 62.4225 75.7251 60.4335C78.3255 58.4445 80.1989 55.6549 81.056 52.4952H92C93.0609 52.4952 94.0783 52.0738 94.8284 51.3237C95.5786 50.5735 96 49.5561 96 48.4952C96 47.4344 95.5786 46.417 94.8284 45.6668C94.0783 44.9167 93.0609 44.4952 92 44.4952ZM66.668 55.4952C65.2835 55.4952 63.9302 55.0847 62.779 54.3155C61.6279 53.5463 60.7307 52.4531 60.2008 51.174C59.671 49.8949 59.5324 48.4875 59.8025 47.1296C60.0726 45.7717 60.7393 44.5245 61.7183 43.5455C62.6972 42.5665 63.9445 41.8998 65.3024 41.6297C66.6602 41.3596 68.0677 41.4983 69.3468 42.0281C70.6259 42.5579 71.7191 43.4551 72.4883 44.6062C73.2575 45.7574 73.668 47.1108 73.668 48.4952C73.6659 50.3511 72.9277 52.1303 71.6154 53.4426C70.3031 54.7549 68.5239 55.4931 66.668 55.4952Z" fill="#067CFF"/>
<path d="M92 77.5H43.724C42.8655 74.3411 40.9913 71.5525 38.3907 69.5644C35.7901 67.5762 32.6075 66.499 29.334 66.499C26.0605 66.499 22.8779 67.5762 20.2773 69.5644C17.6767 71.5525 15.8025 74.3411 14.944 77.5H4C2.93913 77.5 1.92172 77.9215 1.17157 78.6716C0.421427 79.4218 0 80.4392 0 81.5C0 82.5609 0.421427 83.5783 1.17157 84.3284C1.92172 85.0786 2.93913 85.5 4 85.5H14.944C15.8025 88.6589 17.6767 91.4476 20.2773 93.4357C22.8779 95.4238 26.0605 96.501 29.334 96.501C32.6075 96.501 35.7901 95.4238 38.3907 93.4357C40.9913 91.4476 42.8655 88.6589 43.724 85.5H92C93.0609 85.5 94.0783 85.0786 94.8284 84.3284C95.5786 83.5783 96 82.5609 96 81.5C96 80.4392 95.5786 79.4218 94.8284 78.6716C94.0783 77.9215 93.0609 77.5 92 77.5ZM29.332 88.5C27.9475 88.5 26.5942 88.0895 25.443 87.3203C24.2919 86.5511 23.3947 85.4579 22.8648 84.1788C22.335 82.8997 22.1964 81.4923 22.4665 80.1344C22.7366 78.7765 23.4033 77.5293 24.3823 76.5503C25.3612 75.5713 26.6085 74.9047 27.9664 74.6346C29.3242 74.3645 30.7317 74.5031 32.0108 75.0329C33.2899 75.5627 34.3831 76.4599 35.1523 77.6111C35.9215 78.7622 36.332 80.1156 36.332 81.5C36.3288 83.3556 35.5903 85.1342 34.2782 86.4463C32.9662 87.7583 31.1875 88.4968 29.332 88.5Z" fill="#067CFF"/>
</svg>
